# xmcd
#
# Track frame offsets: 
#        150
#        13684
#        29577
#        43371
#        55916
#        71027
#        90023
#        104561
#        119919
#        130733
#        145931
#        162844
#        174965
#
# Disc length: 2524 seconds
#
# Revision: 0
# Processed by: cddbd v1.5.1PL2 Copyright (c) Steve Scherf et al.
# Submitted via: ExactAudioCopy v0.95b4
#
DISCID=b709da0d
DTITLE=Cecil Hall and the Dominion Bluegrass Boys - Mother's Beautiful
DTITLE=Rose
DYEAR=2006
DGENRE=Bluegrass
TTITLE0=Blue Ridge Mountain Girl
TTITLE1=Mother's Beautiful Rose
TTITLE2=I Won't Be the One I Used To Be
TTITLE3=Lord , Guide My Footsteps
TTITLE4=Mush Melon
TTITLE5=The Lord and the Wind
TTITLE6=George , I Need that Rocking Chair
TTITLE7=Beautiful Dreams of You
TTITLE8=Willyjen
TTITLE9=Did You Know
TTITLE10=When My Father Holds My Hand
TTITLE11=If Money Grew on Trees
TTITLE12=Tackett Branch
EXTD=
EXTT0=
EXTT1=
EXTT2=
EXTT3=
EXTT4=
EXTT5=
EXTT6=
EXTT7=
EXTT8=
EXTT9=
EXTT10=
EXTT11=
EXTT12=
PLAYORDER=
